<mxfile host="app.diagrams.net" agent="Mozilla/5.0 (Windows NT 10.0; Win64; x64) AppleWebKit/537.36 (KHTML, like Gecko) Chrome/131.0.0.0 Safari/537.36" version="25.0.1">
  <diagram name="Page-1" id="-ifaSwOT0jKAbxzOrH5F">
    <mxGraphModel dx="733" dy="583" grid="0" gridSize="10" guides="1" tooltips="1" connect="1" arrows="1" fold="1" page="0" pageScale="1" pageWidth="850" pageHeight="1100" math="0" shadow="0">
      <root>
        <mxCell id="0" />
        <mxCell id="1" parent="0" />
        <mxCell id="RIuDTYRbyBlZJYrUjw_T-1" value="Matches" style="rounded=0;whiteSpace=wrap;html=1;" parent="1" vertex="1">
          <mxGeometry x="676.25" y="122.5" width="160" height="85" as="geometry" />
        </mxCell>
        <mxCell id="RIuDTYRbyBlZJYrUjw_T-2" value="TM" style="rhombus;whiteSpace=wrap;html=1;" parent="1" vertex="1">
          <mxGeometry x="500" y="131.25" width="82.5" height="67.5" as="geometry" />
        </mxCell>
        <mxCell id="RIuDTYRbyBlZJYrUjw_T-3" value="kills" style="ellipse;whiteSpace=wrap;html=1;" parent="1" vertex="1">
          <mxGeometry x="1016.25" y="-170" width="100" height="30" as="geometry" />
        </mxCell>
        <mxCell id="RIuDTYRbyBlZJYrUjw_T-4" value="&lt;u&gt;statistics_ID&lt;/u&gt;" style="ellipse;whiteSpace=wrap;html=1;" parent="1" vertex="1">
          <mxGeometry x="636.25" y="-270" width="100" height="30" as="geometry" />
        </mxCell>
        <mxCell id="RIuDTYRbyBlZJYrUjw_T-5" value="deaths" style="ellipse;whiteSpace=wrap;html=1;" parent="1" vertex="1">
          <mxGeometry x="1016.25" y="-132.5" width="100" height="30" as="geometry" />
        </mxCell>
        <mxCell id="RIuDTYRbyBlZJYrUjw_T-6" value="K/D" style="ellipse;whiteSpace=wrap;html=1;dashed=1;dashPattern=8 8;" parent="1" vertex="1">
          <mxGeometry x="766.25" y="-270" width="100" height="30" as="geometry" />
        </mxCell>
        <mxCell id="RIuDTYRbyBlZJYrUjw_T-7" value="assists" style="ellipse;whiteSpace=wrap;html=1;" parent="1" vertex="1">
          <mxGeometry x="1016.25" y="-87.5" width="100" height="30" as="geometry" />
        </mxCell>
        <mxCell id="RIuDTYRbyBlZJYrUjw_T-8" value="Player_statistics" style="rounded=0;whiteSpace=wrap;html=1;" parent="1" vertex="1">
          <mxGeometry x="676.25" y="-160" width="160" height="85" as="geometry" />
        </mxCell>
        <mxCell id="RIuDTYRbyBlZJYrUjw_T-9" value="result" style="ellipse;whiteSpace=wrap;html=1;" parent="1" vertex="1">
          <mxGeometry x="586.25" y="237.5" width="100" height="30" as="geometry" />
        </mxCell>
        <mxCell id="RIuDTYRbyBlZJYrUjw_T-10" value="date" style="ellipse;whiteSpace=wrap;html=1;" parent="1" vertex="1">
          <mxGeometry x="706.25" y="237.5" width="100" height="30" as="geometry" />
        </mxCell>
        <mxCell id="RIuDTYRbyBlZJYrUjw_T-11" value="map" style="ellipse;whiteSpace=wrap;html=1;" parent="1" vertex="1">
          <mxGeometry x="826.25" y="237.5" width="100" height="30" as="geometry" />
        </mxCell>
        <mxCell id="RIuDTYRbyBlZJYrUjw_T-12" value="Stats" style="ellipse;whiteSpace=wrap;html=1;" parent="1" vertex="1">
          <mxGeometry x="876.25" y="-132.5" width="100" height="30" as="geometry" />
        </mxCell>
        <mxCell id="RIuDTYRbyBlZJYrUjw_T-13" value="Players" style="rounded=0;whiteSpace=wrap;html=1;" parent="1" vertex="1">
          <mxGeometry x="240" y="-157.5" width="160" height="85" as="geometry" />
        </mxCell>
        <mxCell id="RIuDTYRbyBlZJYrUjw_T-14" value="PT" style="rhombus;whiteSpace=wrap;html=1;" parent="1" vertex="1">
          <mxGeometry x="278.75" width="82.5" height="67.5" as="geometry" />
        </mxCell>
        <mxCell id="RIuDTYRbyBlZJYrUjw_T-15" value="Weapons" style="rounded=0;whiteSpace=wrap;html=1;" parent="1" vertex="1">
          <mxGeometry x="-160" y="-157.5" width="160" height="85" as="geometry" />
        </mxCell>
        <mxCell id="RIuDTYRbyBlZJYrUjw_T-16" value="name" style="ellipse;whiteSpace=wrap;html=1;" parent="1" vertex="1">
          <mxGeometry x="-340" y="-102.5" width="100" height="30" as="geometry" />
        </mxCell>
        <mxCell id="RIuDTYRbyBlZJYrUjw_T-17" value="&lt;u&gt;weapon_ID&lt;/u&gt;" style="ellipse;whiteSpace=wrap;html=1;" parent="1" vertex="1">
          <mxGeometry x="-340" y="-170" width="100" height="30" as="geometry" />
        </mxCell>
        <mxCell id="RIuDTYRbyBlZJYrUjw_T-18" value="name" style="ellipse;whiteSpace=wrap;html=1;" parent="1" vertex="1">
          <mxGeometry x="210" y="-280" width="100" height="30" as="geometry" />
        </mxCell>
        <mxCell id="RIuDTYRbyBlZJYrUjw_T-19" value="&lt;u&gt;player_ID&lt;/u&gt;" style="ellipse;whiteSpace=wrap;html=1;" parent="1" vertex="1">
          <mxGeometry x="100" y="-280" width="100" height="30" as="geometry" />
        </mxCell>
        <mxCell id="RIuDTYRbyBlZJYrUjw_T-20" value="rating" style="ellipse;whiteSpace=wrap;html=1;" parent="1" vertex="1">
          <mxGeometry x="400" y="18.75" width="100" height="30" as="geometry" />
        </mxCell>
        <mxCell id="RIuDTYRbyBlZJYrUjw_T-21" value="" style="endArrow=classic;html=1;rounded=0;entryX=0.5;entryY=0;entryDx=0;entryDy=0;" parent="1" target="RIuDTYRbyBlZJYrUjw_T-51" edge="1">
          <mxGeometry width="50" height="50" relative="1" as="geometry">
            <mxPoint x="320" y="67.5" as="sourcePoint" />
            <mxPoint x="320" y="120" as="targetPoint" />
          </mxGeometry>
        </mxCell>
        <mxCell id="RIuDTYRbyBlZJYrUjw_T-22" value="" style="endArrow=classic;html=1;rounded=0;entryX=0.5;entryY=1;entryDx=0;entryDy=0;" parent="1" target="RIuDTYRbyBlZJYrUjw_T-13" edge="1">
          <mxGeometry width="50" height="50" relative="1" as="geometry">
            <mxPoint x="320" as="sourcePoint" />
            <mxPoint x="370" y="-50" as="targetPoint" />
          </mxGeometry>
        </mxCell>
        <mxCell id="RIuDTYRbyBlZJYrUjw_T-23" value="" style="endArrow=classic;html=1;rounded=0;" parent="1" edge="1">
          <mxGeometry width="50" height="50" relative="1" as="geometry">
            <mxPoint x="320" as="sourcePoint" />
            <mxPoint x="320" y="-60" as="targetPoint" />
          </mxGeometry>
        </mxCell>
        <mxCell id="RIuDTYRbyBlZJYrUjw_T-24" value="WP" style="rhombus;whiteSpace=wrap;html=1;" parent="1" vertex="1">
          <mxGeometry x="77.5" y="-148.75" width="82.5" height="67.5" as="geometry" />
        </mxCell>
        <mxCell id="RIuDTYRbyBlZJYrUjw_T-25" value="" style="endArrow=classic;html=1;rounded=0;exitX=0;exitY=0.5;exitDx=0;exitDy=0;entryX=1;entryY=0.5;entryDx=0;entryDy=0;" parent="1" source="RIuDTYRbyBlZJYrUjw_T-24" target="RIuDTYRbyBlZJYrUjw_T-15" edge="1">
          <mxGeometry width="50" height="50" relative="1" as="geometry">
            <mxPoint x="77.5" y="-120" as="sourcePoint" />
            <mxPoint x="127.5" y="-170" as="targetPoint" />
          </mxGeometry>
        </mxCell>
        <mxCell id="RIuDTYRbyBlZJYrUjw_T-26" value="" style="endArrow=classic;html=1;rounded=0;exitX=1;exitY=0.5;exitDx=0;exitDy=0;entryX=0;entryY=0.5;entryDx=0;entryDy=0;" parent="1" source="RIuDTYRbyBlZJYrUjw_T-24" target="RIuDTYRbyBlZJYrUjw_T-13" edge="1">
          <mxGeometry width="50" height="50" relative="1" as="geometry">
            <mxPoint x="160" y="-110" as="sourcePoint" />
            <mxPoint x="210" y="-160" as="targetPoint" />
          </mxGeometry>
        </mxCell>
        <mxCell id="RIuDTYRbyBlZJYrUjw_T-27" value="" style="endArrow=classic;html=1;rounded=0;exitX=1;exitY=0.5;exitDx=0;exitDy=0;" parent="1" source="RIuDTYRbyBlZJYrUjw_T-24" edge="1">
          <mxGeometry width="50" height="50" relative="1" as="geometry">
            <mxPoint x="160" y="-120" as="sourcePoint" />
            <mxPoint x="230" y="-115" as="targetPoint" />
          </mxGeometry>
        </mxCell>
        <mxCell id="RIuDTYRbyBlZJYrUjw_T-28" value="age" style="ellipse;whiteSpace=wrap;html=1;" parent="1" vertex="1">
          <mxGeometry x="425" y="-277.5" width="100" height="30" as="geometry" />
        </mxCell>
        <mxCell id="RIuDTYRbyBlZJYrUjw_T-29" value="&lt;font style=&quot;font-size: 12px;&quot;&gt;characters&lt;/font&gt;" style="ellipse;whiteSpace=wrap;html=1;fillStyle=auto;perimeterSpacing=1;strokeWidth=1;shadow=0;backgroundOutline=0;" parent="1" vertex="1">
          <mxGeometry x="320" y="-280" width="100" height="30" as="geometry" />
        </mxCell>
        <mxCell id="RIuDTYRbyBlZJYrUjw_T-30" value="" style="ellipse;whiteSpace=wrap;html=1;fillColor=none;" parent="1" vertex="1">
          <mxGeometry x="325.63" y="-277.5" width="88.75" height="25" as="geometry" />
        </mxCell>
        <mxCell id="RIuDTYRbyBlZJYrUjw_T-31" value="" style="endArrow=none;html=1;rounded=0;entryX=0;entryY=0.5;entryDx=0;entryDy=0;exitX=1;exitY=0.5;exitDx=0;exitDy=0;" parent="1" source="RIuDTYRbyBlZJYrUjw_T-16" target="RIuDTYRbyBlZJYrUjw_T-15" edge="1">
          <mxGeometry width="50" height="50" relative="1" as="geometry">
            <mxPoint x="-200" y="-30" as="sourcePoint" />
            <mxPoint x="-150" y="-80" as="targetPoint" />
          </mxGeometry>
        </mxCell>
        <mxCell id="RIuDTYRbyBlZJYrUjw_T-32" value="" style="endArrow=none;html=1;rounded=0;exitX=1;exitY=0.5;exitDx=0;exitDy=0;entryX=0;entryY=0.5;entryDx=0;entryDy=0;" parent="1" source="RIuDTYRbyBlZJYrUjw_T-17" target="RIuDTYRbyBlZJYrUjw_T-15" edge="1">
          <mxGeometry width="50" height="50" relative="1" as="geometry">
            <mxPoint x="-210" y="-70" as="sourcePoint" />
            <mxPoint x="-160" y="-120" as="targetPoint" />
          </mxGeometry>
        </mxCell>
        <mxCell id="RIuDTYRbyBlZJYrUjw_T-33" value="" style="endArrow=none;html=1;rounded=0;exitX=0.5;exitY=0;exitDx=0;exitDy=0;entryX=0.5;entryY=1;entryDx=0;entryDy=0;" parent="1" source="RIuDTYRbyBlZJYrUjw_T-13" target="RIuDTYRbyBlZJYrUjw_T-19" edge="1">
          <mxGeometry width="50" height="50" relative="1" as="geometry">
            <mxPoint x="310" y="-160" as="sourcePoint" />
            <mxPoint x="360" y="-210" as="targetPoint" />
          </mxGeometry>
        </mxCell>
        <mxCell id="RIuDTYRbyBlZJYrUjw_T-34" value="" style="endArrow=none;html=1;rounded=0;entryX=0.5;entryY=1;entryDx=0;entryDy=0;exitX=0.5;exitY=0;exitDx=0;exitDy=0;" parent="1" source="RIuDTYRbyBlZJYrUjw_T-13" target="RIuDTYRbyBlZJYrUjw_T-18" edge="1">
          <mxGeometry width="50" height="50" relative="1" as="geometry">
            <mxPoint x="320" y="-160" as="sourcePoint" />
            <mxPoint x="370" y="-210" as="targetPoint" />
          </mxGeometry>
        </mxCell>
        <mxCell id="RIuDTYRbyBlZJYrUjw_T-35" value="" style="endArrow=none;html=1;rounded=0;exitX=0.5;exitY=0;exitDx=0;exitDy=0;entryX=0.5;entryY=1;entryDx=0;entryDy=0;" parent="1" source="RIuDTYRbyBlZJYrUjw_T-13" target="RIuDTYRbyBlZJYrUjw_T-28" edge="1">
          <mxGeometry width="50" height="50" relative="1" as="geometry">
            <mxPoint x="400" y="-110" as="sourcePoint" />
            <mxPoint x="450" y="-160" as="targetPoint" />
          </mxGeometry>
        </mxCell>
        <mxCell id="RIuDTYRbyBlZJYrUjw_T-36" value="" style="endArrow=none;html=1;rounded=0;exitX=0.5;exitY=0;exitDx=0;exitDy=0;entryX=0.5;entryY=1;entryDx=0;entryDy=0;" parent="1" source="RIuDTYRbyBlZJYrUjw_T-13" target="RIuDTYRbyBlZJYrUjw_T-29" edge="1">
          <mxGeometry width="50" height="50" relative="1" as="geometry">
            <mxPoint x="400" y="-120" as="sourcePoint" />
            <mxPoint x="450" y="-170" as="targetPoint" />
          </mxGeometry>
        </mxCell>
        <mxCell id="RIuDTYRbyBlZJYrUjw_T-37" value="" style="endArrow=none;html=1;rounded=0;entryX=0.5;entryY=0;entryDx=0;entryDy=0;exitX=0.5;exitY=1;exitDx=0;exitDy=0;" parent="1" source="RIuDTYRbyBlZJYrUjw_T-4" target="RIuDTYRbyBlZJYrUjw_T-8" edge="1">
          <mxGeometry width="50" height="50" relative="1" as="geometry">
            <mxPoint x="626.25" y="-63.5" as="sourcePoint" />
            <mxPoint x="676.25" y="-116.5" as="targetPoint" />
          </mxGeometry>
        </mxCell>
        <mxCell id="RIuDTYRbyBlZJYrUjw_T-38" value="" style="endArrow=none;html=1;rounded=0;entryX=0.5;entryY=0;entryDx=0;entryDy=0;exitX=0.5;exitY=1;exitDx=0;exitDy=0;" parent="1" source="RIuDTYRbyBlZJYrUjw_T-6" target="RIuDTYRbyBlZJYrUjw_T-8" edge="1">
          <mxGeometry width="50" height="50" relative="1" as="geometry">
            <mxPoint x="626.25" y="-63.5" as="sourcePoint" />
            <mxPoint x="676.25" y="-116.5" as="targetPoint" />
          </mxGeometry>
        </mxCell>
        <mxCell id="RIuDTYRbyBlZJYrUjw_T-39" value="" style="endArrow=none;html=1;rounded=0;exitX=0;exitY=0.5;exitDx=0;exitDy=0;entryX=1;entryY=0.5;entryDx=0;entryDy=0;" parent="1" source="RIuDTYRbyBlZJYrUjw_T-12" target="RIuDTYRbyBlZJYrUjw_T-8" edge="1">
          <mxGeometry width="50" height="50" relative="1" as="geometry">
            <mxPoint x="706.25" y="-25" as="sourcePoint" />
            <mxPoint x="756.25" y="-75" as="targetPoint" />
          </mxGeometry>
        </mxCell>
        <mxCell id="RIuDTYRbyBlZJYrUjw_T-40" value="" style="endArrow=none;html=1;rounded=0;entryX=1;entryY=0.5;entryDx=0;entryDy=0;exitX=0;exitY=0.5;exitDx=0;exitDy=0;" parent="1" source="RIuDTYRbyBlZJYrUjw_T-3" target="RIuDTYRbyBlZJYrUjw_T-12" edge="1">
          <mxGeometry width="50" height="50" relative="1" as="geometry">
            <mxPoint x="1016.25" y="-140" as="sourcePoint" />
            <mxPoint x="686.25" y="-45" as="targetPoint" />
          </mxGeometry>
        </mxCell>
        <mxCell id="RIuDTYRbyBlZJYrUjw_T-41" value="" style="endArrow=none;html=1;rounded=0;exitX=0;exitY=0.5;exitDx=0;exitDy=0;entryX=1;entryY=0.5;entryDx=0;entryDy=0;" parent="1" source="RIuDTYRbyBlZJYrUjw_T-5" target="RIuDTYRbyBlZJYrUjw_T-12" edge="1">
          <mxGeometry width="50" height="50" relative="1" as="geometry">
            <mxPoint x="706.25" y="35" as="sourcePoint" />
            <mxPoint x="756.25" y="-15" as="targetPoint" />
          </mxGeometry>
        </mxCell>
        <mxCell id="RIuDTYRbyBlZJYrUjw_T-42" value="" style="endArrow=none;html=1;rounded=0;exitX=0;exitY=0.5;exitDx=0;exitDy=0;entryX=1;entryY=0.5;entryDx=0;entryDy=0;" parent="1" source="RIuDTYRbyBlZJYrUjw_T-7" target="RIuDTYRbyBlZJYrUjw_T-12" edge="1">
          <mxGeometry width="50" height="50" relative="1" as="geometry">
            <mxPoint x="1016.25" y="-50" as="sourcePoint" />
            <mxPoint x="906.25" y="-70" as="targetPoint" />
          </mxGeometry>
        </mxCell>
        <mxCell id="RIuDTYRbyBlZJYrUjw_T-43" value="" style="endArrow=none;html=1;rounded=0;exitX=0.5;exitY=0;exitDx=0;exitDy=0;" parent="1" source="RIuDTYRbyBlZJYrUjw_T-9" edge="1">
          <mxGeometry width="50" height="50" relative="1" as="geometry">
            <mxPoint x="706.25" y="257.5" as="sourcePoint" />
            <mxPoint x="756.25" y="207.5" as="targetPoint" />
          </mxGeometry>
        </mxCell>
        <mxCell id="RIuDTYRbyBlZJYrUjw_T-44" value="" style="endArrow=none;html=1;rounded=0;exitX=0.5;exitY=0;exitDx=0;exitDy=0;" parent="1" source="RIuDTYRbyBlZJYrUjw_T-10" edge="1">
          <mxGeometry width="50" height="50" relative="1" as="geometry">
            <mxPoint x="706.25" y="257.5" as="sourcePoint" />
            <mxPoint x="756.25" y="207.5" as="targetPoint" />
          </mxGeometry>
        </mxCell>
        <mxCell id="RIuDTYRbyBlZJYrUjw_T-45" value="" style="endArrow=none;html=1;rounded=0;exitX=0.5;exitY=1;exitDx=0;exitDy=0;entryX=0.5;entryY=0;entryDx=0;entryDy=0;" parent="1" source="RIuDTYRbyBlZJYrUjw_T-1" target="RIuDTYRbyBlZJYrUjw_T-11" edge="1">
          <mxGeometry width="50" height="50" relative="1" as="geometry">
            <mxPoint x="836.25" y="242.5" as="sourcePoint" />
            <mxPoint x="886.25" y="192.5" as="targetPoint" />
          </mxGeometry>
        </mxCell>
        <mxCell id="RIuDTYRbyBlZJYrUjw_T-46" value="" style="endArrow=none;html=1;rounded=0;exitX=1;exitY=0.5;exitDx=0;exitDy=0;entryX=0;entryY=0.5;entryDx=0;entryDy=0;" parent="1" source="RIuDTYRbyBlZJYrUjw_T-14" target="RIuDTYRbyBlZJYrUjw_T-20" edge="1">
          <mxGeometry width="50" height="50" relative="1" as="geometry">
            <mxPoint x="361.25" y="40" as="sourcePoint" />
            <mxPoint x="411.25" y="-10" as="targetPoint" />
          </mxGeometry>
        </mxCell>
        <mxCell id="RIuDTYRbyBlZJYrUjw_T-47" value="" style="endArrow=none;html=1;rounded=0;exitX=1;exitY=0.5;exitDx=0;exitDy=0;entryX=0;entryY=0.5;entryDx=0;entryDy=0;" parent="1" source="RIuDTYRbyBlZJYrUjw_T-1" target="RIuDTYRbyBlZJYrUjw_T-48" edge="1">
          <mxGeometry width="50" height="50" relative="1" as="geometry">
            <mxPoint x="756.25" y="122.5" as="sourcePoint" />
            <mxPoint x="756.25" y="77.5" as="targetPoint" />
          </mxGeometry>
        </mxCell>
        <mxCell id="RIuDTYRbyBlZJYrUjw_T-48" value="&lt;u&gt;match_ID&lt;/u&gt;" style="ellipse;whiteSpace=wrap;html=1;" parent="1" vertex="1">
          <mxGeometry x="896.25" y="150" width="100" height="30" as="geometry" />
        </mxCell>
        <mxCell id="RIuDTYRbyBlZJYrUjw_T-49" value="price" style="ellipse;whiteSpace=wrap;html=1;" parent="1" vertex="1">
          <mxGeometry x="68.75" y="-50" width="100" height="30" as="geometry" />
        </mxCell>
        <mxCell id="RIuDTYRbyBlZJYrUjw_T-50" value="" style="endArrow=none;html=1;rounded=0;fontSize=12;startSize=8;endSize=8;curved=1;entryX=0.5;entryY=1;entryDx=0;entryDy=0;exitX=0.5;exitY=0;exitDx=0;exitDy=0;" parent="1" source="RIuDTYRbyBlZJYrUjw_T-49" target="RIuDTYRbyBlZJYrUjw_T-24" edge="1">
          <mxGeometry width="50" height="50" relative="1" as="geometry">
            <mxPoint x="120" y="-50" as="sourcePoint" />
            <mxPoint x="170" y="-100" as="targetPoint" />
          </mxGeometry>
        </mxCell>
        <mxCell id="RIuDTYRbyBlZJYrUjw_T-51" value="Teams" style="rounded=0;whiteSpace=wrap;html=1;" parent="1" vertex="1">
          <mxGeometry x="240" y="122.5" width="160" height="85" as="geometry" />
        </mxCell>
        <mxCell id="RIuDTYRbyBlZJYrUjw_T-52" value="name" style="ellipse;whiteSpace=wrap;html=1;" parent="1" vertex="1">
          <mxGeometry x="45" y="113.75" width="100" height="30" as="geometry" />
        </mxCell>
        <mxCell id="RIuDTYRbyBlZJYrUjw_T-53" value="&lt;u&gt;team_ID&lt;/u&gt;" style="ellipse;whiteSpace=wrap;html=1;" parent="1" vertex="1">
          <mxGeometry x="40" y="67.5" width="100" height="30" as="geometry" />
        </mxCell>
        <mxCell id="RIuDTYRbyBlZJYrUjw_T-54" value="" style="endArrow=none;html=1;rounded=0;entryX=0;entryY=0.5;entryDx=0;entryDy=0;exitX=1;exitY=0.5;exitDx=0;exitDy=0;" parent="1" source="RIuDTYRbyBlZJYrUjw_T-52" target="RIuDTYRbyBlZJYrUjw_T-51" edge="1">
          <mxGeometry width="50" height="50" relative="1" as="geometry">
            <mxPoint x="200" y="250" as="sourcePoint" />
            <mxPoint x="250" y="200" as="targetPoint" />
          </mxGeometry>
        </mxCell>
        <mxCell id="RIuDTYRbyBlZJYrUjw_T-55" value="" style="endArrow=none;html=1;rounded=0;exitX=1;exitY=0.5;exitDx=0;exitDy=0;entryX=0;entryY=0.5;entryDx=0;entryDy=0;" parent="1" source="RIuDTYRbyBlZJYrUjw_T-53" target="RIuDTYRbyBlZJYrUjw_T-51" edge="1">
          <mxGeometry width="50" height="50" relative="1" as="geometry">
            <mxPoint x="190" y="210" as="sourcePoint" />
            <mxPoint x="240" y="160" as="targetPoint" />
          </mxGeometry>
        </mxCell>
        <mxCell id="RIuDTYRbyBlZJYrUjw_T-56" value="placement" style="ellipse;whiteSpace=wrap;html=1;" parent="1" vertex="1">
          <mxGeometry x="45" y="162.5" width="100" height="30" as="geometry" />
        </mxCell>
        <mxCell id="RIuDTYRbyBlZJYrUjw_T-57" value="" style="endArrow=none;html=1;rounded=0;entryX=0;entryY=0.5;entryDx=0;entryDy=0;exitX=1;exitY=0.5;exitDx=0;exitDy=0;" parent="1" source="RIuDTYRbyBlZJYrUjw_T-56" target="RIuDTYRbyBlZJYrUjw_T-51" edge="1">
          <mxGeometry width="50" height="50" relative="1" as="geometry">
            <mxPoint x="200" y="296.25" as="sourcePoint" />
            <mxPoint x="240" y="211.25" as="targetPoint" />
          </mxGeometry>
        </mxCell>
        <mxCell id="RIuDTYRbyBlZJYrUjw_T-58" value="nationality" style="ellipse;whiteSpace=wrap;html=1;" parent="1" vertex="1">
          <mxGeometry x="45" y="211.25" width="100" height="30" as="geometry" />
        </mxCell>
        <mxCell id="RIuDTYRbyBlZJYrUjw_T-59" value="" style="endArrow=none;html=1;rounded=0;entryX=0;entryY=0.5;entryDx=0;entryDy=0;exitX=1;exitY=0.5;exitDx=0;exitDy=0;" parent="1" source="RIuDTYRbyBlZJYrUjw_T-58" target="RIuDTYRbyBlZJYrUjw_T-51" edge="1">
          <mxGeometry width="50" height="50" relative="1" as="geometry">
            <mxPoint x="200" y="340" as="sourcePoint" />
            <mxPoint x="240" y="255" as="targetPoint" />
          </mxGeometry>
        </mxCell>
        <mxCell id="RIuDTYRbyBlZJYrUjw_T-60" value="TC" style="rhombus;whiteSpace=wrap;html=1;" parent="1" vertex="1">
          <mxGeometry x="278.75" y="280" width="82.5" height="67.5" as="geometry" />
        </mxCell>
        <mxCell id="RIuDTYRbyBlZJYrUjw_T-61" value="Coach" style="rounded=0;whiteSpace=wrap;html=1;" parent="1" vertex="1">
          <mxGeometry x="240" y="410" width="160" height="85" as="geometry" />
        </mxCell>
        <mxCell id="RIuDTYRbyBlZJYrUjw_T-62" value="name" style="ellipse;whiteSpace=wrap;html=1;" parent="1" vertex="1">
          <mxGeometry x="150" y="525" width="100" height="30" as="geometry" />
        </mxCell>
        <mxCell id="RIuDTYRbyBlZJYrUjw_T-63" value="age" style="ellipse;whiteSpace=wrap;html=1;" parent="1" vertex="1">
          <mxGeometry x="270" y="525" width="100" height="30" as="geometry" />
        </mxCell>
        <mxCell id="RIuDTYRbyBlZJYrUjw_T-64" value="nationality" style="ellipse;whiteSpace=wrap;html=1;" parent="1" vertex="1">
          <mxGeometry x="390" y="525" width="100" height="30" as="geometry" />
        </mxCell>
        <mxCell id="RIuDTYRbyBlZJYrUjw_T-65" value="" style="endArrow=none;html=1;rounded=0;exitX=0.5;exitY=0;exitDx=0;exitDy=0;" parent="1" source="RIuDTYRbyBlZJYrUjw_T-62" edge="1">
          <mxGeometry width="50" height="50" relative="1" as="geometry">
            <mxPoint x="270" y="545" as="sourcePoint" />
            <mxPoint x="320" y="495" as="targetPoint" />
          </mxGeometry>
        </mxCell>
        <mxCell id="RIuDTYRbyBlZJYrUjw_T-66" value="" style="endArrow=none;html=1;rounded=0;exitX=0.5;exitY=0;exitDx=0;exitDy=0;" parent="1" source="RIuDTYRbyBlZJYrUjw_T-63" edge="1">
          <mxGeometry width="50" height="50" relative="1" as="geometry">
            <mxPoint x="270" y="545" as="sourcePoint" />
            <mxPoint x="320" y="495" as="targetPoint" />
          </mxGeometry>
        </mxCell>
        <mxCell id="RIuDTYRbyBlZJYrUjw_T-67" value="" style="endArrow=none;html=1;rounded=0;exitX=0.5;exitY=1;exitDx=0;exitDy=0;entryX=0.5;entryY=0;entryDx=0;entryDy=0;" parent="1" target="RIuDTYRbyBlZJYrUjw_T-64" edge="1">
          <mxGeometry width="50" height="50" relative="1" as="geometry">
            <mxPoint x="325" y="495" as="sourcePoint" />
            <mxPoint x="450" y="480" as="targetPoint" />
          </mxGeometry>
        </mxCell>
        <mxCell id="RIuDTYRbyBlZJYrUjw_T-68" value="" style="endArrow=none;html=1;rounded=0;entryX=0;entryY=0.5;entryDx=0;entryDy=0;exitX=0;exitY=0.5;exitDx=0;exitDy=0;" parent="1" source="RIuDTYRbyBlZJYrUjw_T-61" target="RIuDTYRbyBlZJYrUjw_T-69" edge="1">
          <mxGeometry width="50" height="50" relative="1" as="geometry">
            <mxPoint x="230" y="453" as="sourcePoint" />
            <mxPoint x="315" y="365" as="targetPoint" />
          </mxGeometry>
        </mxCell>
        <mxCell id="RIuDTYRbyBlZJYrUjw_T-69" value="&lt;u&gt;coach_ID&lt;/u&gt;" style="ellipse;whiteSpace=wrap;html=1;" parent="1" vertex="1">
          <mxGeometry x="77.5" y="437.5" width="100" height="30" as="geometry" />
        </mxCell>
        <mxCell id="RIuDTYRbyBlZJYrUjw_T-70" value="" style="endArrow=classic;html=1;rounded=0;fontSize=12;startSize=8;endSize=8;curved=1;exitX=0.5;exitY=1;exitDx=0;exitDy=0;entryX=0.5;entryY=0;entryDx=0;entryDy=0;" parent="1" source="RIuDTYRbyBlZJYrUjw_T-60" target="RIuDTYRbyBlZJYrUjw_T-61" edge="1">
          <mxGeometry width="50" height="50" relative="1" as="geometry">
            <mxPoint x="330" y="430" as="sourcePoint" />
            <mxPoint x="380" y="380" as="targetPoint" />
          </mxGeometry>
        </mxCell>
        <mxCell id="RIuDTYRbyBlZJYrUjw_T-71" value="" style="endArrow=classic;html=1;rounded=0;fontSize=12;startSize=8;endSize=8;curved=1;entryX=0.5;entryY=1;entryDx=0;entryDy=0;exitX=0.5;exitY=0;exitDx=0;exitDy=0;" parent="1" source="RIuDTYRbyBlZJYrUjw_T-60" target="RIuDTYRbyBlZJYrUjw_T-51" edge="1">
          <mxGeometry width="50" height="50" relative="1" as="geometry">
            <mxPoint x="320" y="280" as="sourcePoint" />
            <mxPoint x="370" y="230" as="targetPoint" />
          </mxGeometry>
        </mxCell>
        <mxCell id="RIuDTYRbyBlZJYrUjw_T-72" value="" style="endArrow=classic;html=1;rounded=0;fontSize=12;startSize=8;endSize=8;curved=1;exitX=0;exitY=0.5;exitDx=0;exitDy=0;entryX=1;entryY=0.5;entryDx=0;entryDy=0;" parent="1" source="RIuDTYRbyBlZJYrUjw_T-2" target="RIuDTYRbyBlZJYrUjw_T-51" edge="1">
          <mxGeometry width="50" height="50" relative="1" as="geometry">
            <mxPoint x="510" y="160" as="sourcePoint" />
            <mxPoint x="560" y="110" as="targetPoint" />
          </mxGeometry>
        </mxCell>
        <mxCell id="RIuDTYRbyBlZJYrUjw_T-73" value="" style="endArrow=classic;html=1;rounded=0;fontSize=12;startSize=8;endSize=8;curved=1;exitX=1;exitY=0.5;exitDx=0;exitDy=0;entryX=0;entryY=0.5;entryDx=0;entryDy=0;" parent="1" source="RIuDTYRbyBlZJYrUjw_T-2" target="RIuDTYRbyBlZJYrUjw_T-1" edge="1">
          <mxGeometry width="50" height="50" relative="1" as="geometry">
            <mxPoint x="580" y="170" as="sourcePoint" />
            <mxPoint x="630" y="120" as="targetPoint" />
          </mxGeometry>
        </mxCell>
        <mxCell id="RIuDTYRbyBlZJYrUjw_T-74" value="" style="endArrow=classic;html=1;rounded=0;fontSize=12;startSize=8;endSize=8;curved=1;exitX=1;exitY=0.5;exitDx=0;exitDy=0;" parent="1" source="RIuDTYRbyBlZJYrUjw_T-2" edge="1">
          <mxGeometry width="50" height="50" relative="1" as="geometry">
            <mxPoint x="590" y="170" as="sourcePoint" />
            <mxPoint x="660" y="165" as="targetPoint" />
          </mxGeometry>
        </mxCell>
        <mxCell id="RIuDTYRbyBlZJYrUjw_T-75" value="PM" style="rhombus;whiteSpace=wrap;html=1;" parent="1" vertex="1">
          <mxGeometry x="715" y="-0.5" width="82.5" height="67.5" as="geometry" />
        </mxCell>
        <mxCell id="RIuDTYRbyBlZJYrUjw_T-76" value="" style="endArrow=classic;html=1;rounded=0;entryX=0.5;entryY=0;entryDx=0;entryDy=0;" parent="1" edge="1">
          <mxGeometry width="50" height="50" relative="1" as="geometry">
            <mxPoint x="756.25" y="67" as="sourcePoint" />
            <mxPoint x="756.25" y="122.5" as="targetPoint" />
          </mxGeometry>
        </mxCell>
        <mxCell id="RIuDTYRbyBlZJYrUjw_T-77" value="" style="endArrow=classic;html=1;rounded=0;" parent="1" edge="1">
          <mxGeometry width="50" height="50" relative="1" as="geometry">
            <mxPoint x="756.25" y="-0.5" as="sourcePoint" />
            <mxPoint x="756.25" y="-60.5" as="targetPoint" />
          </mxGeometry>
        </mxCell>
        <mxCell id="RIuDTYRbyBlZJYrUjw_T-78" value="" style="endArrow=classic;html=1;rounded=0;fontSize=12;startSize=8;endSize=8;curved=1;exitX=0.5;exitY=0;exitDx=0;exitDy=0;entryX=0.5;entryY=1;entryDx=0;entryDy=0;" parent="1" source="RIuDTYRbyBlZJYrUjw_T-75" target="RIuDTYRbyBlZJYrUjw_T-8" edge="1">
          <mxGeometry width="50" height="50" relative="1" as="geometry">
            <mxPoint x="780" as="sourcePoint" />
            <mxPoint x="830" y="-50" as="targetPoint" />
          </mxGeometry>
        </mxCell>
        <mxCell id="RIuDTYRbyBlZJYrUjw_T-79" value="PP" style="rhombus;whiteSpace=wrap;html=1;" parent="1" vertex="1">
          <mxGeometry x="500" y="-151.25" width="82.5" height="67.5" as="geometry" />
        </mxCell>
        <mxCell id="RIuDTYRbyBlZJYrUjw_T-80" value="" style="endArrow=classic;html=1;rounded=0;fontSize=12;startSize=8;endSize=8;curved=1;exitX=0;exitY=0.5;exitDx=0;exitDy=0;entryX=1;entryY=0.5;entryDx=0;entryDy=0;" parent="1" source="RIuDTYRbyBlZJYrUjw_T-79" edge="1">
          <mxGeometry width="50" height="50" relative="1" as="geometry">
            <mxPoint x="510" y="-122.5" as="sourcePoint" />
            <mxPoint x="400" y="-117.5" as="targetPoint" />
          </mxGeometry>
        </mxCell>
        <mxCell id="RIuDTYRbyBlZJYrUjw_T-81" value="" style="endArrow=classic;html=1;rounded=0;fontSize=12;startSize=8;endSize=8;curved=1;exitX=1;exitY=0.5;exitDx=0;exitDy=0;entryX=0;entryY=0.5;entryDx=0;entryDy=0;" parent="1" source="RIuDTYRbyBlZJYrUjw_T-79" edge="1">
          <mxGeometry width="50" height="50" relative="1" as="geometry">
            <mxPoint x="580" y="-112.5" as="sourcePoint" />
            <mxPoint x="676" y="-117.5" as="targetPoint" />
          </mxGeometry>
        </mxCell>
        <mxCell id="RIuDTYRbyBlZJYrUjw_T-82" value="" style="endArrow=classic;html=1;rounded=0;fontSize=12;startSize=8;endSize=8;curved=1;exitX=1;exitY=0.5;exitDx=0;exitDy=0;" parent="1" source="RIuDTYRbyBlZJYrUjw_T-79" edge="1">
          <mxGeometry width="50" height="50" relative="1" as="geometry">
            <mxPoint x="590" y="-112.5" as="sourcePoint" />
            <mxPoint x="660" y="-117.5" as="targetPoint" />
          </mxGeometry>
        </mxCell>
        <mxCell id="LqY2skDlMUQfjVLeFghp-1" value="" style="endArrow=classic;html=1;rounded=0;fontSize=12;startSize=8;endSize=9;curved=1;strokeWidth=0;" edge="1" parent="1">
          <mxGeometry width="50" height="50" relative="1" as="geometry">
            <mxPoint x="77" y="-116" as="sourcePoint" />
            <mxPoint x="10" y="-115" as="targetPoint" />
          </mxGeometry>
        </mxCell>
      </root>
    </mxGraphModel>
  </diagram>
</mxfile>
